<svg id="my-svg" width="100%" xmlns="http://www.w3.org/2000/svg" xmlns:xlink="http://www.w3.org/1999/xlink" class="erDiagram" style="max-width: 176.375px; background-color: white;" viewBox="0 0 176.375 286.5" role="graphics-document document" aria-roledescription="er"><style>#my-svg{font-family:"trebuchet ms",verdana,arial,sans-serif;font-size:16px;fill:#333;}@keyframes edge-animation-frame{from{stroke-dashoffset:0;}}@keyframes dash{to{stroke-dashoffset:0;}}#my-svg .edge-animation-slow{stroke-dasharray:9,5!important;stroke-dashoffset:900;animation:dash 50s linear infinite;stroke-linecap:round;}#my-svg .edge-animation-fast{stroke-dasharray:9,5!important;stroke-dashoffset:900;animation:dash 20s linear infinite;stroke-linecap:round;}#my-svg .error-icon{fill:#552222;}#my-svg .error-text{fill:#552222;stroke:#552222;}#my-svg .edge-thickness-normal{stroke-width:1px;}#my-svg .edge-thickness-thick{stroke-width:3.5px;}#my-svg .edge-pattern-solid{stroke-dasharray:0;}#my-svg .edge-thickness-invisible{stroke-width:0;fill:none;}#my-svg .edge-pattern-dashed{stroke-dasharray:3;}#my-svg .edge-pattern-dotted{stroke-dasharray:2;}#my-svg .marker{fill:#333333;stroke:#333333;}#my-svg .marker.cross{stroke:#333333;}#my-svg svg{font-family:"trebuchet ms",verdana,arial,sans-serif;font-size:16px;}#my-svg p{margin:0;}#my-svg .entityBox{fill:#ECECFF;stroke:#9370DB;}#my-svg .relationshipLabelBox{fill:hsl(80, 100%, 96.2745098039%);opacity:0.7;background-color:hsl(80, 100%, 96.2745098039%);}#my-svg .relationshipLabelBox rect{opacity:0.5;}#my-svg .labelBkg{background-color:rgba(248.6666666666, 255, 235.9999999999, 0.5);}#my-svg .edgeLabel{background-color:rgba(232,232,232, 0.8);}#my-svg .edgeLabel .label rect{fill:rgba(232,232,232, 0.8);}#my-svg .edgeLabel .label text{fill:#333;}#my-svg .edgeLabel .label{fill:#9370DB;font-size:14px;}#my-svg .label{font-family:"trebuchet ms",verdana,arial,sans-serif;color:#333;}#my-svg .edge-pattern-dashed{stroke-dasharray:8,8;}#my-svg .node rect,#my-svg .node circle,#my-svg .node ellipse,#my-svg .node polygon{fill:#ECECFF;stroke:#9370DB;stroke-width:1px;}#my-svg .relationshipLine{stroke:#333333;stroke-width:1px;fill:none;}#my-svg .marker{fill:none!important;stroke:#333333!important;stroke-width:1;}#my-svg [data-look=neo].labelBkg{background-color:rgba(248.6666666666, 255, 235.9999999999, 0.5);}#my-svg .node .neo-node{stroke:#9370DB;}#my-svg [data-look="neo"].node rect,#my-svg [data-look="neo"].cluster rect,#my-svg [data-look="neo"].node polygon{stroke:#9370DB;filter:drop-shadow(1px 2px 2px rgba(185, 185, 185, 1));}#my-svg [data-look="neo"].node path{stroke:#9370DB;stroke-width:1px;}#my-svg [data-look="neo"].node .outer-path{filter:drop-shadow(1px 2px 2px rgba(185, 185, 185, 1));}#my-svg [data-look="neo"].node .neo-line path{stroke:#9370DB;filter:none;}#my-svg [data-look="neo"].node circle{stroke:#9370DB;filter:drop-shadow(1px 2px 2px rgba(185, 185, 185, 1));}#my-svg [data-look="neo"].node circle .state-start{fill:#000000;}#my-svg [data-look="neo"].icon-shape .icon{fill:#9370DB;filter:drop-shadow(1px 2px 2px rgba(185, 185, 185, 1));}#my-svg [data-look="neo"].icon-shape .icon-neo path{stroke:#9370DB;filter:drop-shadow(1px 2px 2px rgba(185, 185, 185, 1));}#my-svg :root{--mermaid-font-family:"trebuchet ms",verdana,arial,sans-serif;}</style><g><defs><marker id="my-svg_er-onlyOneStart" class="marker onlyOne er" refX="0" refY="9" markerWidth="18" markerHeight="18" orient="auto"><path d="M9,0 L9,18 M15,0 L15,18"/></marker></defs><defs><marker id="my-svg_er-onlyOneEnd" class="marker onlyOne er" refX="18" refY="9" markerWidth="18" markerHeight="18" orient="auto"><path d="M3,0 L3,18 M9,0 L9,18"/></marker></defs><defs><marker id="my-svg_er-zeroOrOneStart" class="marker zeroOrOne er" refX="0" refY="9" markerWidth="30" markerHeight="18" orient="auto"><circle fill="white" cx="21" cy="9" r="6"/><path d="M9,0 L9,18"/></marker></defs><defs><marker id="my-svg_er-zeroOrOneEnd" class="marker zeroOrOne er" refX="30" refY="9" markerWidth="30" markerHeight="18" orient="auto"><circle fill="white" cx="9" cy="9" r="6"/><path d="M21,0 L21,18"/></marker></defs><defs><marker id="my-svg_er-oneOrMoreStart" class="marker oneOrMore er" refX="18" refY="18" markerWidth="45" markerHeight="36" orient="auto"><path d="M0,18 Q 18,0 36,18 Q 18,36 0,18 M42,9 L42,27"/></marker></defs><defs><marker id="my-svg_er-oneOrMoreEnd" class="marker oneOrMore er" refX="27" refY="18" markerWidth="45" markerHeight="36" orient="auto"><path d="M3,9 L3,27 M9,18 Q27,0 45,18 Q27,36 9,18"/></marker></defs><defs><marker id="my-svg_er-zeroOrMoreStart" class="marker zeroOrMore er" refX="18" refY="18" markerWidth="57" markerHeight="36" orient="auto"><circle fill="white" cx="48" cy="18" r="6"/><path d="M0,18 Q18,0 36,18 Q18,36 0,18"/></marker></defs><defs><marker id="my-svg_er-zeroOrMoreEnd" class="marker zeroOrMore er" refX="39" refY="18" markerWidth="57" markerHeight="36" orient="auto"><circle fill="white" cx="9" cy="18" r="6"/><path d="M21,18 Q39,0 57,18 Q39,36 21,18"/></marker></defs><g class="root"><g class="clusters"/><g class="edgePaths"><path d="M88.188,93.5L88.188,101.917C88.188,110.333,88.188,127.167,88.188,144C88.188,160.833,88.188,177.667,88.188,186.083L88.188,194.5" id="my-svg-id_entity-User-0_entity-CustomerProfile-1_0" class="edge-thickness-normal edge-pattern-solid relationshipLine" style="undefined;;;undefined" data-edge="true" data-et="edge" data-id="id_entity-User-0_entity-CustomerProfile-1_0" data-points="W3sieCI6ODguMTg3NSwieSI6OTMuNX0seyJ4Ijo4OC4xODc1LCJ5IjoxNDR9LHsieCI6ODguMTg3NSwieSI6MTk0LjV9XQ==" data-look="classic" marker-start="url(#my-svg_er-onlyOneStart)" marker-end="url(#my-svg_er-onlyOneEnd)"/></g><g class="edgeLabels"><g class="edgeLabel" transform="translate(88.1875, 144)"><g class="label" data-id="id_entity-User-0_entity-CustomerProfile-1_0" transform="translate(-11.2890625, -10.5)"><foreignObject width="22.578125" height="21"><div xmlns="http://www.w3.org/1999/xhtml" class="labelBkg" style="display: table-cell; white-space: nowrap; line-height: 1.5; max-width: 200px; text-align: center;"><span class="edgeLabel"><p>has</p></span></div></foreignObject></g></g></g><g class="nodes"><g class="node default" id="my-svg-entity-User-0" data-look="classic" transform="translate(88.1875, 50.75)"><g class="outer-path" style=""><path d="M-80.1875 -42.75 L80.1875 -42.75 L80.1875 42.75 L-80.1875 42.75" stroke="none" stroke-width="0" fill="#ECECFF"/><path d="M-80.1875 -42.75 C-38.332584245259945 -42.75, 3.522331509480111 -42.75, 80.1875 -42.75 M-80.1875 -42.75 C-16.675035559536525 -42.75, 46.83742888092695 -42.75, 80.1875 -42.75 M80.1875 -42.75 C80.1875 -20.093267684633897, 80.1875 2.5634646307322058, 80.1875 42.75 M80.1875 -42.75 C80.1875 -16.556044958302913, 80.1875 9.637910083394175, 80.1875 42.75 M80.1875 42.75 C45.72676846739254 42.75, 11.266036934785078 42.75, -80.1875 42.75 M80.1875 42.75 C20.9477343498016 42.75, -38.2920313003968 42.75, -80.1875 42.75 M-80.1875 42.75 C-80.1875 13.901576757129732, -80.1875 -14.946846485740537, -80.1875 -42.75 M-80.1875 42.75 C-80.1875 22.41043226953664, -80.1875 2.070864539073277, -80.1875 -42.75" stroke="#9370DB" stroke-width="1.3" fill="none" stroke-dasharray="0 0"/></g><g style="" class="row-rect-odd"><path d="M-80.1875 0 L80.1875 0 L80.1875 42.75 L-80.1875 42.75" stroke="none" stroke-width="0" fill="hsl(240, 100%, 100%)"/><path d="M-80.1875 0 C-35.78199725859442 0, 8.623505482811154 0, 80.1875 0 M-80.1875 0 C-40.44308228524319 0, -0.6986645704863861 0, 80.1875 0 M80.1875 0 C80.1875 10.221105922347771, 80.1875 20.442211844695542, 80.1875 42.75 M80.1875 0 C80.1875 17.0751765353538, 80.1875 34.1503530707076, 80.1875 42.75 M80.1875 42.75 C40.30695289740635 42.75, 0.4264057948126947 42.75, -80.1875 42.75 M80.1875 42.75 C41.96252629306784 42.75, 3.7375525861356778 42.75, -80.1875 42.75 M-80.1875 42.75 C-80.1875 29.378448874091497, -80.1875 16.00689774818299, -80.1875 0 M-80.1875 42.75 C-80.1875 31.30649687606631, -80.1875 19.862993752132617, -80.1875 0" stroke="#9370DB" stroke-width="1.3" fill="none" stroke-dasharray="0 0"/></g><g class="label name" transform="translate(-16.890625, -33.375)" style=""><foreignObject width="33.78125" height="24"><div xmlns="http://www.w3.org/1999/xhtml" style="display: table-cell; white-space: nowrap; line-height: 1.5; max-width: 131px; text-align: start;"><span class="nodeLabel"><p>User</p></span></div></foreignObject></g><g class="label attribute-type" transform="translate(-67.6875, 9.375)" style=""><foreignObject width="16.90625" height="24"><div xmlns="http://www.w3.org/1999/xhtml" style="display: table-cell; white-space: nowrap; line-height: 1.5; max-width: 117px; text-align: start;"><span class="nodeLabel"><p>int</p></span></div></foreignObject></g><g class="label attribute-name" transform="translate(-25.78125, 9.375)" style=""><foreignObject width="47.125" height="24"><div xmlns="http://www.w3.org/1999/xhtml" style="display: table-cell; white-space: nowrap; line-height: 1.5; max-width: 144px; text-align: start;"><span class="nodeLabel"><p>UserId</p></span></div></foreignObject></g><g class="label attribute-keys" transform="translate(46.34375, 9.375)" style=""><foreignObject width="21.34375" height="24"><div xmlns="http://www.w3.org/1999/xhtml" style="display: table-cell; white-space: nowrap; line-height: 1.5; max-width: 121px; text-align: start;"><span class="nodeLabel"><p>PK</p></span></div></foreignObject></g><g class="label attribute-comment" transform="translate(92.6875, 9.375)" style=""><foreignObject width="0" height="0"><div xmlns="http://www.w3.org/1999/xhtml" style="display: table-cell; white-space: nowrap; line-height: 1.5; max-width: 100px; text-align: start;"><span class="nodeLabel"></span></div></foreignObject></g><g class="divider"><path d="M-80.1875 -0.00005 L-80.1875 0.00005 L80.1875 0.00005 L80.1875 -0.00005" stroke="none" stroke-width="0" fill="#ECECFF" fill-rule="evenodd"/><path d="M-80.1875 -0.00005 C-80.1875 -0.00002146100937227334, -80.1875 0.000007077981255453323, -80.1875 0.00005 M-80.1875 -0.00005 C-80.1875 -0.000011549424290421476, -80.1875 0.00002690115141915705, -80.1875 0.00005 M-80.1875 0.00005 C-25.547874968930422 0.00005, 29.091750062139155 0.00005, 80.1875 0.00005 M-80.1875 0.00005 C-38.02147285089506 0.00005, 4.144554298209883 0.00005, 80.1875 0.00005 M80.1875 0.00005 C80.1875 0.0000268897271096793, 80.1875 0.0000037794542193585965, 80.1875 -0.00005 M80.1875 0.00005 C80.1875 0.000014303535093901861, 80.1875 -0.00002139292981219628, 80.1875 -0.00005 M80.1875 -0.00005 C19.298553042246375 -0.00005, -41.59039391550725 -0.00005, -80.1875 -0.00005 M80.1875 -0.00005 C21.056794299907303 -0.00005, -38.073911400185395 -0.00005, -80.1875 -0.00005" stroke="#9370DB" stroke-width="1.3" fill="none" stroke-dasharray="0 0"/></g><g class="divider"><path d="M-38.2813 0 L-38.2812 0 L-38.2812 42.75 L-38.2813 42.75" stroke="none" stroke-width="0" fill="#ECECFF" fill-rule="evenodd"/><path d="M-38.2813 0 C-38.28127377432983 0, -38.28124754865967 0, -38.2812 0 M-38.2813 0 C-38.281267183526516 0, -38.28123436705304 0, -38.2812 0 M-38.2812 0 C-38.2812 11.20246614641136, -38.2812 22.40493229282272, -38.2812 42.75 M-38.2812 0 C-38.2812 11.242079384769955, -38.2812 22.48415876953991, -38.2812 42.75 M-38.2812 42.75 C-38.28123505433642 42.75, -38.28127010867285 42.75, -38.2813 42.75 M-38.2812 42.75 C-38.28122830433389 42.75, -38.281256608667775 42.75, -38.2813 42.75 M-38.2813 42.75 C-38.2813 30.93862137426693, -38.2813 19.127242748533863, -38.2813 0 M-38.2813 42.75 C-38.2813 29.70303502499874, -38.2813 16.65607004999748, -38.2813 0" stroke="#9370DB" stroke-width="1.3" fill="none" stroke-dasharray="0 0"/></g><g class="divider"><path d="M33.8437 0 L33.8438 0 L33.8438 42.75 L33.8437 42.75" stroke="none" stroke-width="0" fill="#ECECFF" fill-rule="evenodd"/><path d="M33.8437 0 C33.84372876853975 0, 33.8437575370795 0, 33.8438 0 M33.8437 0 C33.84372163170452 0, 33.84374326340904 0, 33.8438 0 M33.8438 0 C33.8438 13.019060226511913, 33.8438 26.038120453023826, 33.8438 42.75 M33.8438 0 C33.8438 13.808883605151344, 33.8438 27.617767210302688, 33.8438 42.75 M33.8438 42.75 C33.84376024966458 42.75, 33.84372049932916 42.75, 33.8437 42.75 M33.8438 42.75 C33.84377220922563 42.75, 33.84374441845125 42.75, 33.8437 42.75 M33.8437 42.75 C33.8437 26.723102475659772, 33.8437 10.696204951319544, 33.8437 0 M33.8437 42.75 C33.8437 33.198060822022654, 33.8437 23.646121644045316, 33.8437 0" stroke="#9370DB" stroke-width="1.3" fill="none" stroke-dasharray="0 0"/></g><g class="divider"><path d="M-80.1875 -0.00005 L-80.1875 0.00005 L80.1875 0.00005 L80.1875 -0.00005" stroke="none" stroke-width="0" fill="#ECECFF" fill-rule="evenodd"/><path d="M-80.1875 -0.00005 C-80.1875 -0.00001820782595405987, -80.1875 0.000013584348091880262, -80.1875 0.00005 M-80.1875 -0.00005 C-80.1875 -0.000011946845212676185, -80.1875 0.00002610630957464763, -80.1875 0.00005 M-80.1875 0.00005 C-18.702418204032867 0.00005, 42.782663591934266 0.00005, 80.1875 0.00005 M-80.1875 0.00005 C-36.7126405154834 0.00005, 6.762218969033199 0.00005, 80.1875 0.00005 M80.1875 0.00005 C80.1875 0.000013557404772107554, 80.1875 -0.000022885190455784893, 80.1875 -0.00005 M80.1875 0.00005 C80.1875 0.00001394659834771305, 80.1875 -0.000022106803304573903, 80.1875 -0.00005 M80.1875 -0.00005 C38.86514914443262 -0.00005, -2.4572017111347577 -0.00005, -80.1875 -0.00005 M80.1875 -0.00005 C45.70427812161664 -0.00005, 11.221056243233278 -0.00005, -80.1875 -0.00005" stroke="#9370DB" stroke-width="1.3" fill="none" stroke-dasharray="0 0"/></g></g><g class="node default" id="my-svg-entity-CustomerProfile-1" data-look="classic" transform="translate(88.1875, 236.5)"><rect class="basic label-container" style="" x="-77.3515625" y="-42" width="154.703125" height="84"/><g class="label" style="" transform="translate(-57.3515625, -12)"><rect/><foreignObject width="114.703125" height="24"><div xmlns="http://www.w3.org/1999/xhtml" style="display: table-cell; white-space: nowrap; line-height: 1.5; max-width: 200px; text-align: center;"><span class="nodeLabel markdown-node-label"><p>CustomerProfile</p></span></div></foreignObject></g></g></g></g></g><defs><filter id="my-svg-drop-shadow" height="130%" width="130%"><feDropShadow dx="4" dy="4" stdDeviation="0" flood-opacity="0.06" flood-color="#000000"/></filter></defs><defs><filter id="my-svg-drop-shadow-small" height="150%" width="150%"><feDropShadow dx="2" dy="2" stdDeviation="0" flood-opacity="0.06" flood-color="#000000"/></filter></defs></svg>